<svg id="SvgjsSvg1008" xmlns="http://www.w3.org/2000/svg" version="1.1" xmlns:xlink="http://www.w3.org/1999/xlink" xmlns:svgjs="http://svgjs.com/svgjs" width="84" height="84"><defs id="SvgjsDefs1009"></defs><path id="SvgjsPath1010" d="M522.74 87.9C521.58 87.9 518.65 88.41000000000001 516.61 93.11L511.69 104.48L507.02 93.45C505.08 88.87 502.34 88.19 500.88 88.19L500.81 88.19C499.33 88.21 496.58 88.95 494.77 93.64L480.07 131.62C477.09 126.25 475.52 120.16 475.52 114C475.52 93.89 491.89 77.52000000000001 512 77.52000000000001C532.11 77.52000000000001 548.48 93.89000000000001 548.48 114C548.48 120.36 546.8100000000001 126.61 543.64 132.12L528.89 93.39000000000001C527.1 88.69000000000001 524.35 87.93000000000002 522.88 87.90000000000002ZM499.92 95.63C500.3 94.64 500.66 94.11999999999999 500.89000000000004 93.86999999999999C501.13000000000005 94.11999999999999 501.52000000000004 94.63 501.93000000000006 95.6L508.6600000000001 111.47999999999999L501.7000000000001 127.53999999999999C500.3300000000001 130.7 500.4600000000001 133.89 502.0500000000001 136.31C503.6400000000001 138.73 506.52000000000015 140.12 509.96000000000015 140.12L513.1100000000001 140.12C516.5400000000001 140.12 519.4300000000002 138.73000000000002 521.0300000000001 136.31C522.6300000000001 133.89000000000001 522.7800000000001 130.69 521.45 127.53L514.6600000000001 111.51L521.6800000000001 95.31C522.1200000000001 94.29 522.5200000000001 93.78 522.74 93.56C522.96 93.8 523.33 94.31 523.73 95.35000000000001L539.8100000000001 137.58C532.85 145.78 522.72 150.48000000000002 512.0000000000001 150.48000000000002C501.0700000000001 150.48000000000002 490.8200000000001 145.63000000000002 483.85000000000014 137.16000000000003ZM511.63 118.51L516.36 129.69C516.97 131.13 517 132.4 516.4300000000001 133.26C515.86 134.12 514.6800000000001 134.6 513.11 134.6L509.96000000000004 134.6C508.39000000000004 134.6 507.22 134.13 506.66 133.28C506.11 132.43 506.14000000000004 131.17 506.76000000000005 129.74ZM470 114C470 137.16 488.84 156 512 156C535.16 156 554 137.16 554 114C554 90.84 535.16 72 512 72C488.84 72 470 90.84 470 114Z " fill="#05aac0" fill-opacity="1" transform="matrix(1,0,0,1,-470,-72)"></path></svg>